<svg height="512pt" viewBox="0 -34 512 512" width="512pt" xmlns="http://www.w3.org/2000/svg"><path d="m503.464844 290.132812h-8.53125v-68.265624c-.023438-16.945313-10.070313-32.269532-25.601563-39.050782v-106.015625c-.019531-16.945312-10.070312-32.269531-25.597656-39.050781v-12.148438c0-14.140624-11.460937-25.601562-25.601563-25.601562-14.136718 0-25.597656 11.460938-25.597656 25.601562v8.53125h-273.070312v-8.53125c0-14.140624-11.460938-25.601562-25.597656-25.601562-14.140626 0-25.601563 11.460938-25.601563 25.601562v12.148438c-15.527344 6.777344-25.578125 22.105469-25.597656 39.050781v106.015625c-15.53125 6.78125-25.578125 22.105469-25.601563 39.050782v68.265624h-8.53125c-4.714844 0-8.535156 3.820313-8.535156 8.535157v119.464843c0 14.140626 11.460938 25.601563 25.601562 25.601563 14.136719 0 25.597657-11.460937 25.597657-25.601563v-25.597656h409.601562v25.597656c0 14.140626 11.460938 25.601563 25.597657 25.601563 14.140624 0 25.601562-11.460937 25.601562-25.601563v-119.464843c0-4.714844-3.820312-8.535157-8.535156-8.535157zm-93.863282-264.53125c0-4.714843 3.820313-8.535156 8.53125-8.535156 4.714844 0 8.535157 3.820313 8.535157 8.535156v8.53125h-17.066407zm-324.269531 0c0-4.714843 3.820313-8.535156 8.535157-8.535156 4.710937 0 8.53125 3.820313 8.53125 8.535156v8.53125h-17.066407zm-25.597656 51.199219c0-14.140625 11.460937-25.601562 25.597656-25.601562h341.335938c14.136719 0 25.597656 11.460937 25.597656 25.601562v102.398438h-21.808594c3.070313-5.164063 4.707031-11.054688 4.742188-17.066407v-34.132812c0-18.851562-15.28125-34.132812-34.132813-34.132812h-93.867187c-18.851563 0-34.132813 15.28125-34.132813 34.132812v34.132812c.035156 6.011719 1.671875 11.902344 4.746094 17.066407h-43.625c3.074219-5.164063 4.710938-11.054688 4.746094-17.066407v-34.132812c0-18.851562-15.28125-34.132812-34.132813-34.132812h-93.867187c-18.851563 0-34.132813 15.28125-34.132813 34.132812v34.132812c.035157 6.011719 1.671875 11.902344 4.742188 17.066407h-21.808594zm358.398437 51.199219v34.132812c0 9.425782-7.640624 17.066407-17.066406 17.066407h-93.867187c-9.425781 0-17.066407-7.640625-17.066407-17.066407v-34.132812c0-9.425781 7.640626-17.066406 17.066407-17.066406h93.867187c9.425782 0 17.066406 7.640625 17.066406 17.066406zm-196.265624 0v34.132812c0 9.425782-7.640626 17.066407-17.066407 17.066407h-93.867187c-9.425782 0-17.066406-7.640625-17.066406-17.066407v-34.132812c0-9.425781 7.640624-17.066406 17.066406-17.066406h93.867187c9.425781 0 17.066407 7.640625 17.066407 17.066406zm-187.734376 93.867188c0-14.140626 11.460938-25.601563 25.601563-25.601563h392.53125c14.140625 0 25.601563 11.460937 25.601563 25.601563v68.265624h-443.734376zm0 196.265624c0 4.714844-3.820312 8.535157-8.53125 8.535157-4.714843 0-8.535156-3.820313-8.535156-8.535157v-25.597656h17.066406zm460.800782 0c0 4.714844-3.820313 8.535157-8.535156 8.535157-4.710938 0-8.53125-3.820313-8.53125-8.535157v-25.597656h17.066406zm0-42.667968h-477.867188v-17.066406h93.867188c4.710937 0 8.53125-3.820313 8.53125-8.53125 0-4.714844-3.820313-8.535157-8.53125-8.535157h-93.867188v-34.132812h477.867188zm0 0"/><path d="m162.132812 341.332031h-17.066406c-4.710937 0-8.53125 3.820313-8.53125 8.535157 0 4.710937 3.820313 8.53125 8.53125 8.53125h17.066406c4.714844 0 8.535157-3.820313 8.535157-8.53125 0-4.714844-3.820313-8.535157-8.535157-8.535157zm0 0"/><path d="m213.332031 341.332031h-17.066406c-4.710937 0-8.53125 3.820313-8.53125 8.535157 0 4.710937 3.820313 8.53125 8.53125 8.53125h17.066406c4.714844 0 8.535157-3.820313 8.535157-8.53125 0-4.714844-3.820313-8.535157-8.535157-8.535157zm0 0"/><path d="m435.199219 213.332031h-17.066407c-4.710937 0-8.53125 3.820313-8.53125 8.535157 0 4.710937 3.820313 8.53125 8.53125 8.53125h17.066407c4.714843 0 8.535156 3.820312 8.535156 8.535156v17.066406c0 4.710938 3.820313 8.535156 8.53125 8.535156 4.714844 0 8.535156-3.824218 8.535156-8.535156v-17.066406c0-14.140625-11.460937-25.601563-25.601562-25.601563zm0 0"/></svg>