<svg height="512pt" viewBox="0 0 512 512.00159" width="512pt" xmlns="http://www.w3.org/2000/svg" xmlns:xlink="http://www.w3.org/1999/xlink"><linearGradient id="a"><stop offset="0" stop-color="#662d91"/><stop offset=".437" stop-color="#3873b3"/><stop offset="1" stop-color="#00c9dd"/></linearGradient><linearGradient id="b" gradientTransform="matrix(1.069353 0 0 -1.069353 -.075129 519.705761)" gradientUnits="userSpaceOnUse" x1="38.2328" x2="449.4344" xlink:href="#a" y1="428.4312" y2="17.2295"/><linearGradient id="c" gradientTransform="matrix(1.069353 0 0 -1.069353 -.075129 519.705761)" gradientUnits="userSpaceOnUse" x1="-17.8783" x2="393.3235" xlink:href="#a" y1="372.3202" y2="-38.8815"/><path d="m503.316406 418.007812h-8.53125v-307.105468c-.058594-51.800782-42.039062-93.78125-93.835937-93.839844h-51.183594v-8.53125c0-4.710938-3.820313-8.53125-8.53125-8.53125h-170.617187c-4.710938 0-8.53125 3.820312-8.53125 8.53125v8.53125h-51.183594c-51.800782.0625-93.777344 42.039062-93.839844 93.839844v307.109375h-8.53125c-4.710938 0-8.53125 3.816406-8.53125 8.53125v34.121093c0 4.710938 3.820312 8.53125 8.53125 8.53125h40.777344c-9.503906 10.460938-8.734375 26.644532 1.726562 36.152344 10.457032 9.507813 26.644532 8.734375 36.152344-1.726562 8.871094-9.757813 8.871094-24.664063 0-34.425782h337.476562c-9.507812 10.460938-8.734374 26.644532 1.726563 36.152344 10.457031 9.507813 26.644531 8.734375 36.152344-1.726562 8.871093-9.757813 8.871093-24.664063 0-34.425782h40.777343c4.710938 0 8.53125-3.820312 8.53125-8.53125v-34.121093c-.003906-4.714844-3.824218-8.535157-8.535156-8.535157zm-324.167968-400.945312h153.554687v17.0625h-153.554687zm-145.023438 93.839844c.046875-42.386719 34.390625-76.730469 76.777344-76.777344h51.183594v8.53125c0 4.710938 3.820312 8.53125 8.53125 8.53125h170.617187c4.710937 0 8.53125-3.820312 8.53125-8.53125v-8.53125h51.183594c42.382812.046875 76.730469 34.390625 76.777343 76.777344v307.105468h-51.183593v-110.898437c0-4.710937-3.820313-8.53125-8.53125-8.53125h-17.0625v-68.246094c0-4.710937-3.820313-8.53125-8.53125-8.53125h-17.0625v-.65625c.003906-1.9375-.65625-3.820312-1.867188-5.332031-18.015625-22.527344-50.878906-26.183594-73.40625-8.167969-3.015625 2.410157-5.753906 5.152344-8.164062 8.167969-1.210938 1.511719-1.871094 3.394531-1.871094 5.332031v.65625h-8.53125v-68.246093c0-4.710938-3.820313-8.53125-8.53125-8.53125h-179.144531c-4.710938 0-8.53125 3.820312-8.53125 8.53125v230.332031h-17.0625c-4.710938 0-8.53125 3.816406-8.53125 8.53125 0 4.710937 3.820312 8.53125 8.53125 8.53125h17.0625v17.058593h-51.183594zm272.984375 264.453125c4.710937 0 8.53125-3.820313 8.53125-8.53125v-8.53125h59.714844v8.53125c0 4.710937 3.820312 8.53125 8.53125 8.53125 4.710937 0 8.53125-3.820313 8.53125-8.53125v-8.53125h17.0625v59.714843h-127.960938v-59.714843h17.058594v8.53125c0 4.710937 3.820313 8.53125 8.53125 8.53125zm-25.589844-34.125v-25.589844h127.960938v25.589844zm102.367188-102.367188v59.714844h-102.367188v-59.714844zm-73.875-17.0625c12.988281-11.375 32.394531-11.375 45.382812 0zm-207.640625 145.023438v-85.308594h162.085937v85.308594zm162.085937 17.0625v34.121093h-162.085937v-34.121093zm-162.085937-119.433594v-68.246094h25.59375v17.0625c0 4.710938 3.820312 8.53125 8.53125 8.53125 4.710937 0 8.53125-3.820312 8.53125-8.53125v-17.0625h76.777344v17.0625c0 4.710938 3.820312 8.53125 8.53125 8.53125 4.710937 0 8.53125-3.820312 8.53125-8.53125v-17.0625h25.59375v68.246094zm0-85.304687v-17.0625h162.085937v17.0625zm-34.125 315.636718c-4.710938 0-8.53125-3.816406-8.53125-8.53125 0-4.710937 3.820312-8.53125 8.53125-8.53125 4.710937 0 8.53125 3.820313 8.53125 8.53125 0 4.714844-3.820313 8.53125-8.53125 8.53125zm375.355468 0c-4.710937 0-8.53125-3.816406-8.53125-8.53125 0-4.710937 3.820313-8.53125 8.53125-8.53125 4.710938 0 8.53125 3.820313 8.53125 8.53125 0 4.714844-3.820312 8.53125-8.53125 8.53125zm51.1875-42.652344h-477.726562v-17.0625h477.726562zm0 0" fill="url(#b)"/><path d="m213.269531 315.640625h-59.714843c-4.710938 0-8.53125 3.820313-8.53125 8.53125s3.820312 8.53125 8.53125 8.53125h59.714843c4.710938 0 8.53125-3.820313 8.53125-8.53125 0-4.714844-3.820312-8.53125-8.53125-8.53125zm0 0" fill="url(#c)"/></svg>