<svg height="479pt" viewBox="0 -121 479.648 479" width="479pt" xmlns="http://www.w3.org/2000/svg"><path d="m82.832031 93.722656c-2.980469-10.277344-12.378906-17.363281-23.078125-17.398437h-33.457031l-10.648437-49.679688-15.648438 3.359375 22.648438 105.671875c1.609374 7.363281 8.113281 12.621094 15.648437 12.648438h25.527344v48h-24c-4.417969 0-8 3.582031-8 8v2.222656c-5.648438 3.230469-8.789063 9.554687-7.945313 16.007813.84375 6.449218 5.503906 11.753906 11.792969 13.421874 6.289063 1.667969 12.964844-.628906 16.894531-5.8125 3.933594-5.1875 4.339844-12.234374 1.035156-17.839843h36.445313c-1.4375 2.421875-2.207031 5.183593-2.222656 8-.039063 7.773437 5.515625 14.453125 13.167969 15.828125 7.652343 1.375 15.1875-2.949219 17.859374-10.25 2.667969-7.300782-.292968-15.46875-7.027343-19.355469v-2.222656c0-4.417969-3.582031-8-8-8h-24v-48h40v-16h-25.96875zm-53.113281-1.398437h30.035156c3.570313-.003907 6.710938 2.363281 7.695313 5.800781l9.765625 34.199219h-38.917969zm0 0"/><path d="m441.351562 148.324219c7.535157-.027344 14.035157-5.28125 15.648438-12.640625l22.648438-105.679688-15.648438-3.359375-10.648438 49.679688h-33.457031c-10.703125.035156-20.101562 7.125-23.078125 17.40625l-11.023437 38.59375h-25.96875v16h40v48h-24c-4.417969 0-8 3.582031-8 8v2.222656c-5.648438 3.230469-8.789063 9.554687-7.945313 16.007813.84375 6.449218 5.503906 11.753906 11.792969 13.421874 6.289063 1.667969 12.964844-.628906 16.894531-5.8125 3.933594-5.1875 4.339844-12.234374 1.035156-17.839843h36.445313c-1.4375 2.421875-2.207031 5.183593-2.222656 8-.039063 7.773437 5.515625 14.453125 13.167969 15.828125 7.652343 1.375 15.1875-2.949219 17.859374-10.25 2.667969-7.300782-.292968-15.46875-7.027343-19.355469v-2.222656c0-4.417969-3.582031-8-8-8h-24v-48zm-29.152343-50.191407c.980469-3.4375 4.121093-5.808593 7.695312-5.808593h30.035157l-8.578126 40h-38.917968zm0 0"/><path d="m375.824219 100.324219v-16h-272v16h48v136h16v-24h144v24h16v-136zm-64 96h-144v-96h144zm0 0"/><path d="m182.769531 64.324219 32-56-13.890625-8-29.695312 52h-59.359375v16h64c2.863281.003906 5.511719-1.519531 6.945312-4zm0 0"/></svg>