<?xml version="1.0" encoding="iso-8859-1"?>
<!-- Generator: Adobe Illustrator 19.0.0, SVG Export Plug-In . SVG Version: 6.00 Build 0)  -->
<svg version="1.1" id="Capa_1" xmlns="http://www.w3.org/2000/svg" xmlns:xlink="http://www.w3.org/1999/xlink" x="0px" y="0px"
	 viewBox="0 0 512 512" style="enable-background:new 0 0 512 512;" xml:space="preserve">
<g>
	<g>
		<path d="M356.519,358.91c-1.859-1.86-4.43-2.931-7.069-2.931c-2.631,0-5.2,1.071-7.07,2.931c-1.86,1.859-2.93,4.439-2.93,7.069
			s1.069,5.21,2.93,7.08c1.87,1.86,4.439,2.92,7.07,2.92c2.64,0,5.21-1.06,7.069-2.92c1.87-1.87,2.931-4.45,2.931-7.08
			C359.45,363.349,358.389,360.769,356.519,358.91z"/>
	</g>
</g>
<g>
	<g>
		<path d="M465.069,391.93C463.21,390.069,460.63,389,458,389s-5.21,1.069-7.07,2.93c-1.86,1.861-2.93,4.44-2.93,7.07
			s1.069,5.21,2.93,7.069c1.86,1.86,4.44,2.931,7.07,2.931s5.21-1.07,7.069-2.931C466.93,404.21,468,401.63,468,399
			S466.93,393.79,465.069,391.93z"/>
	</g>
</g>
<g>
	<g>
		<path d="M91.569,198.881v-4.214c0-0.056-0.007-0.111-0.008-0.167H92c5.522,0,10-4.477,10-10c0-5.523-4.478-10-10-10H71.138
			c-5.522,0-10,4.477-10,10c0,5.523,4.478,10,10,10h0.44c-0.001,0.056-0.008,0.11-0.008,0.167v4.214
			c-27.23,4.755-48,28.549-48,57.119c0,5.522,4.478,10,10,10c5.522,0,9.999-4.478,9.999-10c0-20.953,17.047-38,38-38
			s38,17.047,38,38c0,5.522,4.478,10,10,10c5.522,0,10-4.478,10-10C139.569,227.43,118.799,203.635,91.569,198.881z"/>
	</g>
</g>
<g>
	<g>
		<path d="M502,266h-42v-77.735c0-20.215-13.649-37.941-33.193-43.107l-37.177-9.826v-23.113c0-0.55-0.056-1.086-0.142-1.613
			c5.288-7.689,8.391-16.989,8.391-27.002v-25.12v-7.576V10c0-5.523-4.478-10-10-10h-75.758c-5.522,0-10,4.477-10,10v40.909v7.576
			v25.12c0,10.013,3.103,19.312,8.391,27.002c-0.085,0.526-0.142,1.062-0.142,1.613v23.113l-37.177,9.826
			C253.649,150.324,240,168.05,240,188.265V266H129.569h-96H10c-5.522,0-10,4.478-10,10v48c0,5.522,4.478,10,10,10h34v168
			c0,5.522,4.478,10,10,10h404c5.522,0,10-4.478,10-10v-64.914c0-5.522-4.478-10-10-10c-5.522,0-10,4.478-10,10V492H64V375.983
			h248.121c5.522,0,10-4.478,10-10c0-5.522-4.478-10-10-10H64V334h384v23c0,5.522,4.478,10,10,10c5.522,0,10-4.478,10-10v-23h34
			c5.522,0,10-4.478,10-10v-48C512,270.478,507.522,266,502,266z M421.695,164.494C432.473,167.343,440,177.118,440,188.265V266h-20
			v-64c0-5.523-4.478-10-10-10c-5.522,0-10,4.477-10,10v64h-40V163.197l21.235-9.397L421.695,164.494z M360,141.327v-10.96
			c3.354-0.715,6.575-1.786,9.63-3.164v9.863L360,141.327z M322.121,20h55.758v28.485h-55.758V20z M322.121,68.485h55.758v15.12
			c0,15.339-12.507,27.819-27.879,27.819s-27.879-12.479-27.879-27.819V68.485z M340,130.367v10.96l-9.63-4.261v-9.863
			C333.425,128.581,336.646,129.652,340,130.367z M260,188.265c0-11.147,7.527-20.922,18.305-23.771l40.46-10.694L340,163.197V266
			h-38.013v-64c0-5.523-4.478-10-10-10c-5.522,0-10,4.477-10,10v64H260V188.265z M492,314H20v-28h472V314z"/>
	</g>
</g>
<g>
	<g>
		<path d="M391.069,187.59c-1.859-1.86-4.439-2.92-7.069-2.92c-2.641,0-5.21,1.06-7.07,2.92c-1.86,1.87-2.93,4.44-2.93,7.08
			c0,2.63,1.069,5.21,2.93,7.07c1.861,1.86,4.44,2.93,7.07,2.93s5.21-1.07,7.069-2.93c1.86-1.86,2.931-4.44,2.931-7.07
			C394,192.03,392.93,189.46,391.069,187.59z"/>
	</g>
</g>
<g>
</g>
<g>
</g>
<g>
</g>
<g>
</g>
<g>
</g>
<g>
</g>
<g>
</g>
<g>
</g>
<g>
</g>
<g>
</g>
<g>
</g>
<g>
</g>
<g>
</g>
<g>
</g>
<g>
</g>
</svg>
