<?xml version="1.0" encoding="iso-8859-1"?>
<!-- Generator: Adobe Illustrator 19.0.0, SVG Export Plug-In . SVG Version: 6.00 Build 0)  -->
<svg version="1.1" id="Capa_1" xmlns="http://www.w3.org/2000/svg" xmlns:xlink="http://www.w3.org/1999/xlink" x="0px" y="0px"
	 viewBox="0 0 496 496" style="enable-background:new 0 0 496 496;" xml:space="preserve">
<g>
	<g>
		<path d="M336,448v-32H160v32h-16v48h208v-48H336z M176,432h144v16H176V432z M336,480H160v-16h176V480z"/>
	</g>
</g>
<g>
	<g>
		<path d="M472,264H328h-8H200v-39.864c0-17.768-11.928-33.584-29.016-38.464L144,177.968v-6.288
			c7.864-7.064,13.376-16.648,15.248-27.496C174.968,132.008,184,114.672,184,96c0-10.52-2.92-20.424-8-29.184V64
			c0-35.288-28.712-64-64-64C76.712,0,48,28.712,48,64v2.816C42.92,75.576,40,85.48,40,96c0,18.672,9.032,36.008,24.752,48.176
			c1.872,10.848,7.384,20.44,15.248,27.496v6.288l-26.984,7.712C35.928,190.552,24,206.368,24,224.136V264H0v48h16v160
			c0,13.232,10.768,24,24,24h88V312h32v88h16v-88h24v88h16v-88h32v88h16v-88h24v88h16v-88h16v72c0,13.232,10.768,24,24,24
			s24-10.768,24-24v-48c0-4.416,3.584-8,8-8c4.416,0,8,3.584,8,8v24c0,13.232,10.768,24,24,24s24-10.768,24-24v-40
			c0-4.416,3.584-8,8-8c4.416,0,8,3.584,8,8v104c0,10.416,6.712,19.216,16,22.528V472c0,4.416-3.584,8-8,8h-24v-80h-16v80h-32v-56
			h-16v72h88c13.232,0,24-10.768,24-24v-25.472c9.288-3.312,16-12.112,16-22.528V288C496,274.768,485.232,264,472,264z M144,136
			c0,17.648-14.352,32-32,32s-32-14.352-32-32v-23.136c8.248,0.248,21.032-1.072,35.24-8.056l2.416-1.072
			C128.64,109.12,137.76,111.12,144,111.8V136z M112,16c19.984,0,37.136,12.28,44.352,29.688C144.112,37.144,128.736,32,112,32
			c-16.736,0-32.112,5.144-44.352,13.688C74.864,28.28,92.016,16,112,16z M73.936,96.24L64,93.752v26.912
			c-5.168-7.36-8-15.84-8-24.664c0-26.472,25.128-48,56-48s56,21.528,56,48c0,8.848-2.848,17.352-8.04,24.728l-0.072-25.704
			l-8.92,1.04c-0.224,0.04-25.096,2.496-57.312-29.72L82.344,77.656c6.392,6.392,12.576,11.608,18.464,15.864
			C85.536,98.832,74.432,96.344,73.936,96.24z M40,224.136c0-10.664,7.16-20.152,17.408-23.08L96,190.032V181.2
			c5.016,1.784,10.384,2.8,16,2.8c5.616,0,10.984-1.024,16-2.8v8.832l38.592,11.024C176.84,203.992,184,213.48,184,224.136V264h-24
			v-48H64v48H40V224.136z M144,232v32H80v-32H144z M64,480H40c-4.416,0-8-3.584-8-8V312h32V480z M112,480H80V312h32V480z M320,296
			H16v-16h304V296z M480,424c0,4.416-3.584,8-8,8c-4.416,0-8-3.584-8-8V320c0-13.232-10.768-24-24-24s-24,10.768-24,24v40
			c0,4.416-3.584,8-8,8c-4.416,0-8-3.584-8-8v-24c0-13.232-10.768-24-24-24s-24,10.768-24,24v48c0,4.416-3.584,8-8,8
			c-4.416,0-8-3.584-8-8V280h136c4.416,0,8,3.584,8,8V424z"/>
	</g>
</g>
<g>
	<g>
		<path d="M461.264,90.016C469.608,82.712,480,73.624,480,56v-8h-16v8c0,9.88-4.8,14.552-13.264,21.968
			C442.392,85.264,432,94.352,432,111.976c0,17.632,10.384,26.72,18.736,34.024C459.2,153.416,464,158.096,464,167.992
			c0,9.888-4.8,14.568-13.264,21.984C442.384,197.28,432,206.368,432,224v8h16v-8c0-9.896,4.8-14.568,13.264-21.992
			c8.352-7.304,18.736-16.384,18.736-34.016c0-17.632-10.384-26.72-18.736-34.024C452.8,126.544,448,121.864,448,111.976
			C448,102.096,452.8,97.424,461.264,90.016z"/>
	</g>
</g>
<g>
	<g>
		<path d="M365.264,42.016C373.608,34.712,384,25.624,384,8V0h-16v8c0,9.88-4.8,14.552-13.264,21.968
			C346.392,37.264,336,46.352,336,63.976c0,17.632,10.384,26.72,18.736,34.024C363.2,105.416,368,110.096,368,119.992
			c0,9.888-4.8,14.568-13.264,21.984C346.384,149.28,336,158.368,336,176v8h16v-8c0-9.896,4.8-14.568,13.264-21.992
			c8.352-7.304,18.736-16.384,18.736-34.016c0-17.632-10.384-26.72-18.736-34.024C356.8,78.544,352,73.864,352,63.976
			C352,54.096,356.8,49.424,365.264,42.016z"/>
	</g>
</g>
<g>
	<g>
		<path d="M269.264,90.016C277.608,82.712,288,73.624,288,56v-8h-16v8c0,9.88-4.8,14.552-13.264,21.968
			C250.392,85.264,240,94.352,240,111.976c0,17.632,10.384,26.72,18.736,34.024C267.2,153.416,272,158.096,272,167.992
			c0,9.888-4.8,14.568-13.264,21.984C250.384,197.28,240,206.368,240,224v8h16v-8c0-9.896,4.8-14.568,13.264-21.992
			c8.352-7.304,18.736-16.384,18.736-34.016c0-17.632-10.384-26.72-18.736-34.024C260.8,126.544,256,121.864,256,111.976
			C256,102.096,260.8,97.424,269.264,90.016z"/>
	</g>
</g>
<g>
</g>
<g>
</g>
<g>
</g>
<g>
</g>
<g>
</g>
<g>
</g>
<g>
</g>
<g>
</g>
<g>
</g>
<g>
</g>
<g>
</g>
<g>
</g>
<g>
</g>
<g>
</g>
<g>
</g>
</svg>
