<svg height="589pt" viewBox="-71 -18 589 589.33254" width="589pt" xmlns="http://www.w3.org/2000/svg"><path d="m85.488281 396.792969c-20.859375-.007813-37.777343 16.894531-37.78125 37.753906-.003906 20.859375 16.898438 37.773437 37.757813 37.777344 20.859375.003906 37.773437-16.90625 37.773437-37.765625-.019531-20.84375-16.910156-37.734375-37.75-37.765625zm0 53.074219c-8.453125.007812-15.316406-6.839844-15.320312-15.296876-.007813-8.453124 6.839843-15.3125 15.296875-15.316406 8.457031-.003906 15.3125 6.851563 15.3125 15.304688-.003906 8.445312-6.839844 15.292968-15.289063 15.308594zm0 0"/><path d="m354.398438 396.792969c-20.859376-.007813-37.777344 16.894531-37.78125 37.753906-.011719 20.859375 16.898437 37.773437 37.757812 37.777344 20.859375.003906 37.773438-16.90625 37.765625-37.765625-.011719-20.84375-16.902344-37.734375-37.742187-37.765625zm0 53.074219c-8.457032.007812-15.316407-6.839844-15.324219-15.296876-.007813-8.453124 6.84375-15.3125 15.300781-15.316406s15.308594 6.851563 15.308594 15.304688c0 8.445312-6.84375 15.292968-15.285156 15.308594zm0 0"/><path d="m424.070312 326.890625h-13.671874c-7.96875-.007813-15.699219 2.707031-21.917969 7.6875l-19.960938-66.078125c-.078125-.257812-.167969-.515625-.265625-.773438-4.851562-12.507812-16.871094-20.773437-30.289062-20.828124h-38.609375c-.695313-17.402344-14.992188-31.167969-32.414063-31.191407h-88.589844c-17.417968.023438-31.71875 13.789063-32.410156 31.191407h-43.558594c-13.417968.054687-25.4375 8.320312-30.292968 20.828124-.097656.257813-.183594.515626-.261719.773438l-20.054687 66.367188c-6.277344-5.167969-14.15625-7.984376-22.285157-7.976563h-13.671875c-10.605468.011719-19.203125 8.605469-19.210937 19.214844v15.871093c.007812 10.609376 8.605469 19.203126 19.210937 19.214844h3.070313c-8.519531 8.078125-13.34375 19.300782-13.34375 31.042969v44.648437c.03125 23.679688 19.21875 42.867188 42.890625 42.890626h4.839844v30.882812c.015624 12.054688 9.78125 21.828125 21.835937 21.84375h31.722656c12.054688-.015625 21.820313-9.789062 21.835938-21.84375v-30.882812h183.007812v30.882812c.015625 12.054688 9.78125 21.828125 21.832031 21.84375h31.722657c12.054687-.015625 21.824219-9.789062 21.832031-21.84375v-30.882812h4.84375c23.679688-.023438 42.867188-19.210938 42.890625-42.890626v-44.648437c.007813-11.742187-4.820313-22.964844-13.339844-31.046875h2.617188c10.613281-.007812 19.203125-8.605469 19.21875-19.210938v-15.871093c-.015625-10.609375-8.613281-19.207031-19.222657-19.214844zm-13.671874 22.457031h10.425781v9.382813h-22.707031c1.515624-5.539063 6.539062-9.378907 12.28125-9.382813zm-232.046876-111.1875h88.589844c5.027344.015625 9.261719 3.753906 9.898438 8.734375h-108.386719c.636719-4.980469 4.871094-8.71875 9.898437-8.734375zm-85.167968 37.308594c1.574218-3.6875 5.1875-6.085938 9.199218-6.105469h235.578126c4.011718.019531 7.625 2.417969 9.195312 6.105469l28.058594 92.851562v1.03125h-23.945313c-.234375-20.671874-17.0625-37.304687-37.734375-37.304687s-37.496094 16.632813-37.738281 37.304687h-210.980469zm235.617187 93.882812h-30.527343c.207031-8.28125 6.984374-14.882812 15.261718-14.882812 8.28125 0 15.058594 6.601562 15.265625 14.882812zm-309.738281-20.003906h10.425781c5.742188.007813 10.765625 3.851563 12.28125 9.382813h-22.707031zm87.144531 180.691406h-30.476562v-30.265624h30.476562zm258.402344 0h-30.476563v-30.265624h30.476563zm47.730469-73.15625c-.011719 11.28125-9.152344 20.417969-20.425782 20.433594h-343.480468c-11.277344-.015625-20.417969-9.152344-20.429688-20.433594v-44.648437c.011719-11.277344 9.152344-20.417969 20.429688-20.429687h343.472656c11.28125.011718 20.421875 9.152343 20.433594 20.429687zm0 0"/><path d="m125.230469 3.289062c-4.386719-4.386718-11.492188-4.386718-15.878907 0l-47.070312 47.074219c-4.386719 4.378907-4.386719 11.492188 0 15.878907l47.070312 47.070312c4.386719 4.386719 11.492188 4.386719 15.878907 0s4.386719-11.496094 0-15.882812l-27.902344-27.898438h272.339844c6.207031 0 11.230469-5.03125 11.230469-11.230469 0-6.203125-5.023438-11.230469-11.230469-11.230469h-272.339844l27.902344-27.902343c4.386719-4.378907 4.386719-11.492188 0-15.878907zm0 0"/><path d="m70.21875 159.664062h272.339844l-27.902344 27.902344c-4.386719 4.386719-4.386719 11.492188 0 15.878906 4.386719 4.386719 11.5 4.386719 15.878906 0l47.074219-47.074218c4.386719-4.378906 4.386719-11.492188 0-15.878906l-47.074219-47.070313c-4.378906-4.382813-11.492187-4.382813-15.878906 0-4.386719 4.386719-4.386719 11.496094 0 15.882813l27.902344 27.898437h-272.339844c-6.199219 0-11.226562 5.03125-11.226562 11.230469 0 6.203125 5.027343 11.230468 11.226562 11.230468zm0 0"/></svg>